<svg width="22" height="23" viewBox="0 0 22 23" fill="none" xmlns="http://www.w3.org/2000/svg">
<g clip-path="url(#clip0_85_6782)">
<path d="M15.8888 6.38926V16.167M10.9999 10.0559V16.167M6.11106 13.7226V16.167M3.66661 21.0559H18.3333C18.9816 21.0559 19.6033 20.7984 20.0618 20.34C20.5202 19.8815 20.7777 19.2598 20.7777 18.6115V3.94481C20.7777 3.2965 20.5202 2.67475 20.0618 2.21633C19.6033 1.75791 18.9816 1.50037 18.3333 1.50037H3.66661C3.01831 1.50037 2.39655 1.75791 1.93813 2.21633C1.47971 2.67475 1.22217 3.2965 1.22217 3.94481V18.6115C1.22217 19.2598 1.47971 19.8815 1.93813 20.34C2.39655 20.7984 3.01831 21.0559 3.66661 21.0559Z" stroke="#282938" stroke-width="2" stroke-linecap="round" stroke-linejoin="round"/>
</g>
<defs>
<clipPath id="clip0_85_6782">
<rect width="22" height="22" fill="white" transform="translate(0 0.278198)"/>
</clipPath>
</defs>
</svg>
