<svg width="22" height="23" viewBox="0 0 22 23" fill="none" xmlns="http://www.w3.org/2000/svg">
<g clipPath="url(#clip0_85_6786)">
<path d="M14.3001 1.50037L7.7001 5.16703M7.7001 21.0559L1.7084 17.7266C1.52571 17.6252 1.37204 17.4692 1.26461 17.2762C1.15717 17.0832 1.10021 16.8608 1.1001 16.6339V3.47792C1.1002 3.26967 1.14819 3.06489 1.23952 2.88303C1.33084 2.70117 1.46248 2.54826 1.62193 2.4388C1.78138 2.32933 1.96336 2.26696 2.1506 2.25759C2.33784 2.24822 2.52413 2.29216 2.6918 2.38526L7.7001 5.16703V21.0559ZM7.7001 21.0559L14.3001 17.3893L7.7001 21.0559ZM7.7001 21.0559V5.16703V21.0559ZM14.3001 17.3893L19.3084 20.171C19.4761 20.2641 19.6623 20.3081 19.8496 20.2987C20.0368 20.2893 20.2188 20.227 20.3783 20.1175C20.5377 20.008 20.6694 19.8551 20.7607 19.6733C20.852 19.4914 20.9 19.2866 20.9001 19.0784V5.92237C20.9 5.69545 20.843 5.47304 20.7356 5.28006C20.6282 5.08707 20.4745 4.93113 20.2918 4.8297L14.3001 1.50037V17.3893ZM14.3001 17.3893V1.50037V17.3893Z" stroke="#9197B3" strokeWidth="2" strokeLinecap="round" strokeLinejoin="round"/>
</g>
<defs>
<clipPath id="clip0_85_6786">
<rect width="22" height="22" fill="white" transform="translate(0 0.278198)"/>
</clipPath>
</defs>
</svg>
