<svg width="22" height="23" viewBox="0 0 22 23" fill="none" xmlns="http://www.w3.org/2000/svg">
<g clip-path="url(#clip0_85_6801)">
<path d="M6.8509 7.97817C7.4548 6.69667 9.0839 5.77817 11.0001 5.77817C13.4311 5.77817 15.4001 7.25547 15.4001 9.07817C15.4001 10.6182 13.9943 11.9107 12.0935 12.2759C11.4973 12.3903 11.0111 13.6698 11.0111 14.2781M11.0001 16.7782H11.0111M20.9001 11.2782C20.9001 12.5783 20.644 13.8656 20.1465 15.0667C19.649 16.2679 18.9198 17.3592 18.0005 18.2785C17.0812 19.1978 15.9898 19.9271 14.7887 20.4246C13.5875 20.9221 12.3002 21.1782 11.0001 21.1782C9.70001 21.1782 8.41265 20.9221 7.21153 20.4246C6.01041 19.9271 4.91904 19.1978 3.99974 18.2785C3.08044 17.3592 2.35121 16.2679 1.85369 15.0667C1.35617 13.8656 1.1001 12.5783 1.1001 11.2782C1.1001 8.65253 2.14313 6.13443 3.99974 4.27782C5.85635 2.42121 8.37445 1.37817 11.0001 1.37817C13.6257 1.37817 16.1438 2.42121 18.0005 4.27782C19.8571 6.13443 20.9001 8.65253 20.9001 11.2782Z" stroke="#9197B3" stroke-width="2" stroke-linecap="round" stroke-linejoin="round"/>
</g>
<defs>
<clipPath id="clip0_85_6801">
<rect width="22" height="22" fill="white" transform="translate(0 0.278198)"/>
</clipPath>
</defs>
</svg>
