<svg width="22" height="23" viewBox="0 0 22 23" fill="none" xmlns="http://www.w3.org/2000/svg">
<g clipPath="url(#clip0_85_6794)">
<path d="M9.1576 2.82687C9.6262 0.895274 12.374 0.895274 12.8426 2.82687C12.9129 3.11705 13.0507 3.38653 13.2449 3.61337C13.439 3.84022 13.684 4.01801 13.9598 4.13229C14.2357 4.24658 14.5346 4.29411 14.8323 4.27103C15.1299 4.24795 15.418 4.15491 15.6729 3.99947C17.3702 2.96547 19.3139 4.90807 18.2799 6.60647C18.1247 6.86129 18.0318 7.14914 18.0088 7.44662C17.9857 7.7441 18.0332 8.04282 18.1474 8.31849C18.2615 8.59416 18.4391 8.83901 18.6657 9.03313C18.8923 9.22725 19.1615 9.36517 19.4514 9.43567C21.383 9.90427 21.383 12.6521 19.4514 13.1207C19.1612 13.191 18.8917 13.3288 18.6649 13.523C18.4381 13.7171 18.2603 13.9621 18.146 14.2379C18.0317 14.5137 17.9842 14.8127 18.0072 15.1103C18.0303 15.408 18.1234 15.696 18.2788 15.951C19.3128 17.6483 17.3702 19.592 15.6718 18.558C15.417 18.4028 15.1291 18.3099 14.8316 18.2868C14.5342 18.2638 14.2355 18.3113 13.9598 18.4255C13.6841 18.5396 13.4393 18.7172 13.2451 18.9438C13.051 19.1704 12.9131 19.4396 12.8426 19.7295C12.374 21.6611 9.6262 21.6611 9.1576 19.7295C9.08729 19.4393 8.94945 19.1698 8.75532 18.943C8.56118 18.7161 8.31622 18.5383 8.04038 18.4241C7.76454 18.3098 7.46562 18.2622 7.16793 18.2853C6.87025 18.3084 6.58222 18.4014 6.3273 18.5569C4.63 19.5909 2.6863 17.6483 3.7203 15.9499C3.87551 15.6951 3.9684 15.4072 3.99143 15.1097C4.01446 14.8122 3.96696 14.5135 3.85282 14.2379C3.73867 13.9622 3.56108 13.7173 3.3345 13.5232C3.10791 13.3291 2.83872 13.1912 2.5488 13.1207C0.617198 12.6521 0.617198 9.90427 2.5488 9.43567C2.83898 9.36536 3.10845 9.22753 3.3353 9.03339C3.56214 8.83925 3.73994 8.5943 3.85422 8.31846C3.9685 8.04262 4.01603 7.74369 3.99295 7.44601C3.96987 7.14833 3.87683 6.8603 3.7214 6.60537C2.6874 4.90807 4.63 2.96437 6.3284 3.99837C7.424 4.66717 8.854 4.07537 9.1576 2.82687Z" stroke="#9197B3" strokeWidth="2" strokeLinecap="round" strokeLinejoin="round"/>
<path d="M14.3 11.2781C14.3 12.1534 13.9523 12.9927 13.3334 13.6116C12.7145 14.2305 11.8752 14.5781 11 14.5781C10.1247 14.5781 9.28537 14.2305 8.6665 13.6116C8.04763 12.9927 7.69995 12.1534 7.69995 11.2781C7.69995 10.4029 8.04763 9.56357 8.6665 8.9447C9.28537 8.32583 10.1247 7.97815 11 7.97815C11.8752 7.97815 12.7145 8.32583 13.3334 8.9447C13.9523 9.56357 14.3 10.4029 14.3 11.2781V11.2781Z" stroke="#9197B3" strokeWidth="2" strokeLinecap="round" strokeLinejoin="round"/>
</g>
<defs>
<clipPath id="clip0_85_6794">
<rect width="22" height="22" fill="white" transform="translate(0 0.278198)"/>
</clipPath>
</defs>
</svg>