<svg width="22" height="23" viewBox="0 0 22 23" fill="none" xmlns="http://www.w3.org/2000/svg">
<g clipPath="url(#clip0_85_6790)">
<path d="M18.7001 21.0559H3.3001C2.71662 21.0559 2.15704 20.7984 1.74446 20.34C1.33188 19.8815 1.1001 19.2598 1.1001 18.6115V3.94481C1.1001 3.2965 1.33188 2.67475 1.74446 2.21633C2.15704 1.75791 2.71662 1.50037 3.3001 1.50037H14.3001C14.8836 1.50037 15.4432 1.75791 15.8557 2.21633C16.2683 2.67475 16.5001 3.2965 16.5001 3.94481V5.16703L18.7001 21.0559ZM18.7001 21.0559C18.1166 21.0559 17.557 20.7984 17.1445 20.34C16.7319 19.8815 16.5001 19.2598 16.5001 18.6115V5.16703L18.7001 21.0559ZM18.7001 21.0559C19.2836 21.0559 19.8432 20.7984 20.2557 20.34C20.6683 19.8815 20.9001 19.2598 20.9001 18.6115V7.61148C20.9001 6.96317 20.6683 6.34142 20.2557 5.88299C19.8432 5.42457 19.2836 5.16703 18.7001 5.16703H16.5001L18.7001 21.0559ZM12.1001 1.50037H7.7001H12.1001ZM5.5001 16.167H12.1001H5.5001ZM5.5001 6.38925H12.1001V11.2781H5.5001V6.38925Z" stroke="#9197B3" strokeWidth="2" strokeLinecap="round" strokeLinejoin="round"/>
</g>
<defs>
<clipPath id="clip0_85_6790">
<rect width="22" height="22" fill="white" transform="translate(0 0.278198)"/>
</clipPath>
</defs>
</svg>
