<svg width="1642" height="1583" viewBox="0 0 1642 1583" fill="none" xmlns="http://www.w3.org/2000/svg">
<path d="M1030.76 205.259C1102.36 233.968 1141.48 255.799 1177.96 305.15C1214.44 354.501 1200.36 443.689 1200.36 443.689C1249.3 486.555 1197.57 568.713 1148.73 600.616C1161.06 599.37 1219.36 645.22 1277.81 725.228C1343.54 815.216 1282.64 992.109 1247.29 1053.47C1142.08 1180.17 1065.03 1233.88 838.263 1234C713.06 1224.17 692.392 1239.63 537.318 1178.6C460.391 1146.12 387.557 1072.17 387.557 1072.17C304.1 990.958 208.994 705.902 248.034 678.551C287.075 651.2 316.516 678.551 316.516 678.551C331.762 670.889 336.356 658.93 355.556 658.93C374.756 658.93 389.476 669.038 389.476 669.038C523.281 620.987 623.591 607.192 747.94 612.552C693.001 543.162 618.346 493.258 679.5 339.5C722.029 262.183 745.807 241.752 810 211C893.155 182.984 941.491 181.724 1030.76 205.259Z" fill="white"/>
<path d="M941 446.5L986 418" stroke="#3C3824" stroke-width="7" stroke-linecap="round"/>
<ellipse cx="1128.5" cy="486.5" rx="55.5" ry="52.5" fill="#E69292"/>
<path d="M916.5 457.5C916.5 457.5 896.943 456.986 902.5 488.5C908.056 520.014 1097.75 540.733 1134.4 530.741C1171.05 520.75 1156.12 486.484 1128.95 471.791C1101.79 457.098 1031.45 390.326 955.415 414.048C921.727 424.558 916.5 457.5 916.5 457.5Z" fill="#FCC822"/>
<path d="M941 463C966.469 459.797 967 454.526 967 449" stroke="#A68416" stroke-width="7" stroke-linecap="round"/>
<path d="M919 344C919 364.435 901.539 381 880 381C858.461 381 841 364.435 841 344C841 323.565 858.461 307 880 307C901.539 307 919 323.565 919 344Z" fill="#3C3824"/>
<path d="M906.275 349.939C900.189 350.046 868.387 367.242 872.55 369.065C876.714 370.887 890.557 366.161 897.34 361.448C902.846 357.621 912.361 349.832 906.275 349.939Z" fill="white" stroke="white" stroke-width="7"/>
<ellipse cx="896" cy="326.5" rx="6" ry="6.5" fill="white"/>
<path d="M1123 370C1123 390.435 1105.54 407 1084 407C1062.46 407 1045 390.435 1045 370C1045 349.565 1062.46 333 1084 333C1105.54 333 1123 349.565 1123 370Z" fill="#3C3824"/>
<path d="M1110.27 375.939C1104.19 376.046 1072.39 393.242 1076.55 395.065C1080.71 396.887 1094.56 392.161 1101.34 387.448C1106.85 383.621 1116.36 375.832 1110.27 375.939Z" fill="white" stroke="white" stroke-width="7"/>
<ellipse cx="1100" cy="352.5" rx="6" ry="6.5" fill="white"/>
<ellipse cx="799.5" cy="438.5" rx="55.5" ry="52.5" fill="#E69292"/>
<path d="M889.212 1276.6C881.537 1275.03 872.961 1270.6 864 1264.19C864 1264.19 789 1230 781 1220C773 1210 775.833 1199.32 784.5 1193.5C787.576 1191.43 793.5 1190.5 793.5 1190.5L802.901 1200.33C778.596 1167.81 761.424 1135.74 765.5 1128.5C774 1113.4 806.198 1141.32 821.59 1128.5C833 1119 834.681 1029 856.59 1040C878.5 1051 888.494 1114 911.5 1114C942 1114 931.5 1088 958.5 1083.5C985.5 1079 937.5 1286.5 889.212 1276.6Z" fill="#FCC822"/>
<path d="M1069.37 1063.18C1080.36 1049.78 1107.22 1082.86 1124.61 1072.92C1137.49 1065.54 1154.78 977.201 1174.44 991.838C1194.11 1006.47 1193.01 1070.25 1215.67 1074.25C1245.7 1079.55 1239.88 1052.12 1267.25 1052.37C1294.62 1052.63 1211.32 1248.64 1165.48 1230.51C1159.02 1227.95 1152.25 1223.06 1145.42 1216.5L1091.5 1194.5C1091.5 1194.5 1073.97 1186.89 1069.37 1178.5C1065.33 1171.14 1064.43 1163.79 1069.37 1157C1073.45 1151.38 1078.67 1150.76 1085.5 1149.5C1090.47 1148.58 1098.45 1149.5 1098.45 1149.5C1077.45 1110.13 1063.66 1070.14 1069.37 1063.18Z" fill="#FCC822"/>
<path d="M829.5 635C798.239 626.282 778.506 627.056 749.5 612.5C742.703 609.089 735.885 599.369 729.5 603.5C723.434 607.425 728.499 618.5 729.5 623C730.5 627.5 757.446 708.462 795 749.5C828.455 786.06 857.877 794.985 901.5 818.5C961.728 850.966 1064 884 1064 884C1064 884 1130.23 844.318 1162.5 808C1191 775.928 1200.25 762.449 1206.5 720C1212.53 679.097 1194.5 612.5 1194.5 612.5C1192.86 607.109 1179.5 576.5 1168 589.5C1156.5 602.5 1156.72 601.086 1148.5 607C1127.02 622.456 1117.88 624.908 1093.5 635C1065.92 646.419 1020 656 1020 656C1020 656 965.75 665.817 931 663C890.015 659.678 869.107 646.046 829.5 635Z" fill="#222E50" stroke="#222E50" stroke-width="7" stroke-linecap="round"/>
<mask id="mask0_650_405" style="mask-type:alpha" maskUnits="userSpaceOnUse" x="723" y="582" width="489" height="306">
<path d="M829.5 635C798.239 626.282 778.506 627.056 749.5 612.5C742.703 609.089 735.885 599.369 729.5 603.5C723.434 607.425 728.499 618.5 729.5 623C730.5 627.5 757.446 708.462 795 749.5C828.455 786.06 857.877 794.985 901.5 818.5C961.728 850.966 1064 884 1064 884C1064 884 1130.23 844.318 1162.5 808C1191 775.928 1200.25 762.449 1206.5 720C1212.53 679.097 1194.5 612.5 1194.5 612.5C1192.86 607.109 1179.5 576.5 1168 589.5C1156.5 602.5 1156.72 601.086 1148.5 607C1127.02 622.456 1117.88 624.908 1093.5 635C1065.92 646.419 1020 656 1020 656C1020 656 965.75 665.817 931 663C890.015 659.678 869.107 646.046 829.5 635Z" fill="#222E50" stroke="#222E50" stroke-width="7" stroke-linecap="round"/>
</mask>
<g mask="url(#mask0_650_405)">
<path d="M1159 592.5C1159 592.5 1125.57 632.549 1104.5 658.5C1080.51 688.054 1049.45 727.776 1027.55 756M918 879L958 837.5L1000.5 791C1000.5 791 1011.6 776.547 1027.55 756M757 605.5L837 658.5L1022.98 753.661M1027.55 756L1022.98 753.661M1022.98 753.661L1128 807.5L1177.5 837.5" stroke="white" stroke-width="70" stroke-linecap="square"/>
<path d="M1154.5 582C1154.5 582 1119.07 627.549 1098 653.5C1074.01 683.054 1050.5 700 1027.55 756M920.5 886L972 835L1012 790C1012 790 1011.6 776.547 1027.55 756M721.5 597.5L839.072 672.339L937 723L1027.55 756M1027.55 756L1084.5 772.5L1137.5 799.5L1184 830.5" stroke="#B00000" stroke-width="15" stroke-linecap="square"/>
<path d="M995.466 638C995.466 638 1008.68 660.183 1016.15 676C1025.7 696.202 1029.78 728.5 1029.78 728.5C1029.78 728.5 1044.41 784.5 1047.43 806C1050.46 827.5 1052.64 830.131 1055 850.5C1056.72 865.337 1062.57 888 1062.57 888M833 783.5C833 783.5 889.933 776.458 923.819 772C956.42 767.711 1021.2 760 1021.2 760C1078.14 742.231 1091.9 740.769 1148.85 723C1205.79 705.231 1221 692 1221 692" stroke="white" stroke-width="70" stroke-linecap="square"/>
<path d="M995.466 639C995.466 639 1008.68 661.183 1016.15 677C1025.7 697.202 1029.78 729.5 1029.78 729.5C1029.78 729.5 1044.41 785.5 1047.43 807C1050.46 828.5 1052.64 831.131 1055 851.5C1056.72 866.337 1062.57 889 1062.57 889M833 784.5C833 784.5 889.933 777.458 923.819 773C956.42 768.711 1021.2 761 1021.2 761C1078.14 743.231 1091.9 741.769 1148.85 724C1205.79 706.231 1221 693 1221 693" stroke="#B00000" stroke-width="30" stroke-linecap="square"/>
</g>
<g filter="url(#filter0_d_650_405)">
<path d="M443.624 822C437.344 841.332 443.179 855.172 452.23 873.357C463.189 895.375 476.01 905.978 498.335 916.051C512.045 922.238 535.833 924.714 535.833 924.714C535.833 924.714 534.638 955.271 543.21 971.74C549.603 984.023 555.897 989.58 566.57 998.347C582.044 1011.06 593.39 1015.39 612.675 1020.62C640.028 1028.04 657.168 1024.64 685.213 1020.62C714.99 1016.36 758.981 998.347 758.981 998.347L885 924.714" stroke="white" stroke-width="30" stroke-linecap="round"/>
</g>
<defs>
<filter id="filter0_d_650_405" x="412.003" y="806.996" width="487.999" height="252" filterUnits="userSpaceOnUse" color-interpolation-filters="sRGB">
<feFlood flood-opacity="0" result="BackgroundImageFix"/>
<feColorMatrix in="SourceAlpha" type="matrix" values="0 0 0 0 0 0 0 0 0 0 0 0 0 0 0 0 0 0 127 0" result="hardAlpha"/>
<feOffset dx="-10" dy="15"/>
<feGaussianBlur stdDeviation="2"/>
<feComposite in2="hardAlpha" operator="out"/>
<feColorMatrix type="matrix" values="0 0 0 0 0 0 0 0 0 0 0 0 0 0 0 0 0 0 0.25 0"/>
<feBlend mode="normal" in2="BackgroundImageFix" result="effect1_dropShadow_650_405"/>
<feBlend mode="normal" in="SourceGraphic" in2="effect1_dropShadow_650_405" result="shape"/>
</filter>
</defs>
</svg>
